# xmcd
#
# Track frame offsets:
#	150
#	21022
#	40767
#	57860
#	72055
#	88337
#	103925
#	120757
#	138542
#	157407
#	183847
#	200835
#	219995
#	236197
#	251370
#	271070
#	292655
#
# Disc length: 4208 seconds
#
# Revision: 1
# Processed by: cddbd v1.5PL3 Copyright (c) Steve Scherf et al.
# Submitted via: CDex 1.50Beta5
#
DISCID=f2106e11
DTITLE=沢田研二 - Royal Straight Flush(1980〜1996) Disc 1
DYEAR=1997
DGENRE=Pop
TTITLE0=TOKIO
TTITLE1=恋のバッド・チューニング
TTITLE2=酒場でDABADA
TTITLE3=おまえがパラダイス
TTITLE4=渚のラブレター
TTITLE5=ス・ト・リ・ッ・パー
TTITLE6=麗人
TTITLE7=おまえにチェックイン
TTITLE8=6番目のユ・ウ・ウ・ツ
TTITLE9=背中まで45分
TTITLE10=晴れのちBLUE BOY
TTITLE11=きめてやる今夜
TTITLE12=どん底
TTITLE13=渡り鳥はぐれ島
TTITLE14=AMADORA
TTITLE15=灰とダイヤモンド
TTITLE16=アリフ・ライラ・ウイ・ライラ
EXTD=
EXTT0=
EXTT1=
EXTT2=
EXTT3=
EXTT4=
EXTT5=
EXTT6=
EXTT7=
EXTT8=
EXTT9=
EXTT10=
EXTT11=
EXTT12=
EXTT13=
EXTT14=
EXTT15=
EXTT16=
PLAYORDER=
